<?xml version="1.0" encoding="UTF-8"?>
<svg width="20px" height="32px" viewBox="0 0 20 32" version="1.1" xmlns="http://www.w3.org/2000/svg" xmlns:xlink="http://www.w3.org/1999/xlink">
    <!-- Generator: Sketch 55.1 (78136) - https://sketchapp.com -->
    <title>Arrow_down</title>
    <desc>Created with Sketch.</desc>
    <g id="Collecting-ES" stroke="none" stroke-width="1" fill="none" fill-rule="evenodd">
        <g id="Goodbye-cash-pitfalls-Copy" transform="translate(-810.000000, -568.000000)" fill="#0D2E52">
            <g id="Header">
                <g id="Content" transform="translate(530.000000, 41.000000)">
                    <path d="M299.592578,535.977322 L290,527 L280.407422,535.977322 C279.891612,536.460048 279.864793,537.269522 280.347519,537.785331 C280.366871,537.80601 280.386905,537.82604 280.407587,537.845388 C280.96934,538.370926 281.842372,538.370849 282.404033,537.845212 L288.588469,532.057438 L288.588469,557.588469 C288.588469,558.368036 289.220433,559 290,559 C290.779567,559 291.411531,558.368036 291.411531,557.588469 L291.411531,532.057438 L297.595967,537.845212 C298.157628,538.370849 299.03066,538.370926 299.592413,537.845388 C300.108308,537.362753 300.13527,536.553284 299.652635,536.03739 C299.633287,536.016708 299.613257,535.996674 299.592578,535.977322 Z" id="Arrow_down" transform="translate(290.000000, 543.000000) rotate(-180.000000) translate(-290.000000, -543.000000) "></path>
                </g>
            </g>
        </g>
    </g>
</svg>