<?xml version="1.0" encoding="UTF-8"?>
<svg width="573px" height="453px" viewBox="0 0 573 453" version="1.1" xmlns="http://www.w3.org/2000/svg" xmlns:xlink="http://www.w3.org/1999/xlink">
    <!-- Generator: Sketch 55.1 (78136) - https://sketchapp.com -->
    <title>Ilustration</title>
    <desc>Created with Sketch.</desc>
    <defs>
        <polygon id="path-1" points="0 0.91935 110.0104 0.91935 110.0104 125.6281 0 125.6281"></polygon>
        <polygon id="path-3" points="0.60865 0.594 130.3059 0.594 130.3059 88.2302 0.60865 88.2302"></polygon>
        <rect id="path-5" x="0" y="0" width="502" height="374"></rect>
    </defs>
    <g id="Collecting-ES" stroke="none" stroke-width="1" fill="none" fill-rule="evenodd">
        <g id="Goodbye-cash-pitfalls-Copy" transform="translate(-1206.000000, -266.000000)">
            <g id="Header">
                <g id="Content" transform="translate(530.000000, 41.000000)">
                    <g id="Ilustration" transform="translate(643.000000, 225.000000)">
                        <g id="Hand-illustration">
                            <g id="Group" transform="translate(339.000000, 203.000000)">
                                <path d="M106.5963,22.7397 C105.8153,21.9587 105.8153,20.6927 106.5963,19.9117 L119.9033,6.6047 C122.6093,3.8987 126.2073,2.4087 130.0343,2.4087 C133.8613,2.4087 137.4593,3.8987 140.1653,6.6047 L141.5113,8.0127 C142.2743,8.8117 142.2453,10.0777 141.4473,10.8407 C140.6483,11.6037 139.3823,11.5747 138.6193,10.7757 L137.3053,9.4007 C135.3863,7.4827 132.7933,6.4087 130.0343,6.4087 C127.2753,6.4087 124.6823,7.4827 122.7313,9.4327 L109.4243,22.7397 C109.0343,23.1307 108.5223,23.3257 108.0103,23.3257 C107.4983,23.3257 106.9873,23.1307 106.5963,22.7397 Z" id="Fill-1" fill="#0D2E52"></path>
                                <g id="Group-5" transform="translate(0.000000, 18.406000)">
                                    <mask id="mask-2" fill="white">
                                        <use xlink:href="#path-1"></use>
                                    </mask>
                                    <g id="Clip-4"></g>
                                    <path d="M5.8199,125.6281 C5.3079,125.6281 4.7969,125.4331 4.4059,125.0421 C1.5549,122.1921 -0.0091,118.3941 -0.000138627169,114.3491 C0.0089,110.3111 1.5849,106.5171 4.4369,103.6651 L106.5959,1.5051 C107.3769,0.7241 108.6439,0.7241 109.4239,1.5051 C110.2059,2.2861 110.2059,3.5531 109.4239,4.3341 L7.2649,106.4941 C5.1659,108.5921 4.0069,111.3851 3.9999,114.3581 C3.9929,117.3321 5.1419,120.1221 7.2339,122.2141 C8.0149,122.9951 8.0149,124.2611 7.2339,125.0421 C6.8439,125.4331 6.3319,125.6281 5.8199,125.6281" id="Fill-3" fill="#0D2E52" mask="url(#mask-2)"></path>
                                </g>
                                <g id="Group-8" transform="translate(76.000000, 0.406000)">
                                    <mask id="mask-4" fill="white">
                                        <use xlink:href="#path-3"></use>
                                    </mask>
                                    <g id="Clip-7"></g>
                                    <path d="M2.6084,88.2302 C2.0964,88.2302 1.5844,88.0352 1.1944,87.6442 C0.4134,86.8632 0.4134,85.5972 1.1944,84.8162 L81.2204,4.7902 C83.9264,2.0842 87.5244,0.5932 91.3514,0.5932 C95.1784,0.5932 98.7764,2.0842 101.4824,4.7902 L129.7194,33.0272 C130.5014,33.8082 130.5014,35.0742 129.7194,35.8552 C128.9394,36.6362 127.6714,36.6362 126.8914,35.8552 L98.6544,7.6182 C96.7034,5.6682 94.1104,4.5932 91.3514,4.5932 C88.5924,4.5932 85.9994,5.6682 84.0484,7.6182 L4.0224,87.6442 C3.6324,88.0352 3.1204,88.2302 2.6084,88.2302" id="Fill-6" fill="#0D2E52" mask="url(#mask-4)"></path>
                                </g>
                                <path d="M116.4278,249.406 C112.6008,249.406 109.0028,247.916 106.2968,245.209 L3.8908,142.904 C3.8908,142.904 3.8908,142.903 3.8908,142.903 C3.1098,142.122 3.1098,140.856 3.8898,140.075 C4.6718,139.294 5.9368,139.294 6.7188,140.074 C8.8078,142.162 11.6158,143.296 14.5598,143.283 C17.5278,143.264 20.3208,142.095 22.4248,139.992 L77.1948,85.222 C77.9748,84.441 79.2418,84.441 80.0228,85.222 C80.8038,86.003 80.8038,87.269 80.0228,88.05 L25.2528,142.82 C22.4008,145.673 18.6118,147.258 14.5838,147.282 C14.3618,147.284 14.1418,147.281 13.9238,147.272 L109.1238,242.38 C111.0748,244.332 113.6688,245.406 116.4278,245.406 C119.1868,245.406 121.7798,244.332 123.7308,242.381 L259.0678,107.044 C261.0188,105.093 262.0928,102.499 262.0928,99.741 C262.0928,96.982 261.0188,94.389 259.0678,92.438 L240.9008,74.27 C240.1188,73.489 240.1188,72.223 240.9008,71.442 C241.6808,70.661 242.9478,70.661 243.7288,71.442 L261.8958,89.61 C264.6028,92.316 266.0928,95.914 266.0928,99.741 C266.0928,103.568 264.6028,107.166 261.8958,109.872 L126.5588,245.209 C123.8528,247.916 120.2548,249.406 116.4278,249.406" id="Fill-9" fill="#0D2E52"></path>
                                <path d="M236.5245,58.3447 L236.5345,58.3447 L236.5245,58.3447 Z M211.7075,31.3437 C211.1475,31.3437 210.5875,31.5567 210.1615,31.9827 L180.6755,61.4687 C177.3435,64.8007 175.5085,69.2307 175.5085,73.9427 C175.5085,78.6547 177.3435,83.0847 180.6755,86.4167 C184.0075,89.7487 188.4375,91.5837 193.1495,91.5837 C197.8615,91.5837 202.2925,89.7487 205.6245,86.4167 L235.1105,56.9307 C235.9625,56.0787 235.9625,54.6917 235.1095,53.8397 L213.2535,31.9827 C212.8265,31.5567 212.2675,31.3437 211.7075,31.3437 L211.7075,31.3437 Z M193.1495,95.5837 C187.3695,95.5837 181.9345,93.3327 177.8475,89.2447 C173.7595,85.1577 171.5085,79.7227 171.5085,73.9427 C171.5085,68.1617 173.7595,62.7277 177.8475,58.6397 L207.3335,29.1537 C209.7445,26.7427 213.6705,26.7417 216.0815,29.1537 L237.9385,51.0107 C240.3505,53.4227 240.3505,57.3467 237.9395,59.7587 L237.9385,59.7587 L208.4525,89.2447 C204.3645,93.3327 198.9305,95.5837 193.1495,95.5837 L193.1495,95.5837 Z" id="Fill-11" fill="#0D2E52"></path>
                                <path d="M194.6216,66.616 C191.3936,66.616 188.7676,69.242 188.7676,72.471 C188.7676,75.699 191.3936,78.325 194.6216,78.325 C197.8496,78.325 200.4756,75.699 200.4756,72.471 C200.4756,69.242 197.8496,66.616 194.6216,66.616 M194.6216,82.325 C189.1876,82.325 184.7676,77.904 184.7676,72.471 C184.7676,67.037 189.1876,62.616 194.6216,62.616 C200.0556,62.616 204.4756,67.037 204.4756,72.471 C204.4756,77.904 200.0556,82.325 194.6216,82.325" id="Fill-13" fill="#0D2E52"></path>
                            </g>
                            <g id="Group">
                                <mask id="mask-6" fill="white">
                                    <use xlink:href="#path-5"></use>
                                </mask>
                                <g id="Mask"></g>
                                <g mask="url(#mask-6)" fill="#002955">
                                    <path d="M260.8833,236.9852 C260.8833,233.1002 264.0443,229.9392 267.9303,229.9392 C271.8163,229.9392 274.9773,233.1002 274.9773,236.9852 C274.9773,240.8712 271.8163,244.0322 267.9303,244.0322 C264.0443,244.0322 260.8833,240.8712 260.8833,236.9852 M278.9773,236.9852 C278.9773,230.8942 274.0213,225.9392 267.9303,225.9392 C261.8393,225.9392 256.8833,230.8942 256.8833,236.9852 C256.8833,243.0762 261.8393,248.0322 267.9303,248.0322 C274.0213,248.0322 278.9773,243.0762 278.9773,236.9852" id="Fill-1"></path>
                                    <path d="M455.556,109.075 C455.556,109.075 455.556,109.075 455.556,109.075 L367.089,197.543 L341.709,172.163 C343.095,170.47 344.388,168.7 345.56,166.848 L345.561,166.848 C345.566,166.84 345.571,166.831 345.577,166.823 C345.587,166.806 345.599,166.791 345.609,166.775 L345.608,166.774 C348.207,162.998 349.366,158.818 348.954,154.679 C348.002,145.117 339.451,138.113 329.888,139.064 C324.454,139.604 319.57,142.635 316.734,147.188 L304.379,134.833 L434.383,4.829 L497.093,67.538 L455.556,109.075 Z M317.85,148.304 L318.246,148.538 L317.869,148.323 L317.85,148.304 Z M300.136,136.247 L314.4,150.511 C311.294,154.096 306.904,156.419 302.108,156.896 C291.848,157.917 282.664,150.399 281.642,140.135 C281.147,135.163 282.618,130.296 285.784,126.43 C288.95,122.565 293.432,120.163 298.404,119.669 C302.775,119.234 307.141,120.379 310.747,122.808 L300.136,133.419 C299.761,133.794 299.55,134.303 299.55,134.833 C299.55,135.364 299.761,135.872 300.136,136.247 L300.136,136.247 Z M253.533,182.31 L263.567,171.649 L262.412,170.286 C255.909,162.61 251.942,153.241 250.942,143.189 C250.779,141.546 250.697,139.907 250.694,138.276 L250.695,138.276 L250.695,138.214 C250.69,126.801 254.589,115.829 261.917,106.882 C270.304,96.641 282.177,90.28 295.35,88.969 C309.214,87.589 322.783,91.834 332.922,100.634 L313.635,119.921 C309.146,116.665 303.578,115.135 298.008,115.688 C291.973,116.289 286.533,119.203 282.69,123.896 C278.847,128.588 277.061,134.495 277.662,140.531 C278.826,152.229 288.722,160.99 300.239,160.99 C300.988,160.99 301.744,160.952 302.504,160.877 C309.795,160.152 316.32,155.92 319.967,149.555 L319.967,149.555 C322.124,145.907 325.98,143.472 330.284,143.044 C337.64,142.311 344.24,147.708 344.973,155.075 C345.376,159.126 343.728,162.473 342.274,164.568 L343.918,165.708 L342.226,164.641 C340.349,167.617 338.152,170.374 335.695,172.889 L335.67,172.866 L334.177,174.377 C334.027,174.518 333.888,174.671 333.735,174.81 L333.742,174.818 L290.16,218.937 L253.533,182.31 Z M250.695,49.457 C250.695,42.054 256.718,36.031 264.122,36.031 C271.525,36.031 277.549,42.054 277.549,49.457 L277.549,89.754 C270.376,93.103 263.986,98.042 258.822,104.347 C255.412,108.511 252.69,113.08 250.695,117.918 L250.695,49.457 Z M284.875,46.421 C286.156,43.072 288.665,40.421 291.939,38.959 C295.214,37.496 298.863,37.396 302.212,38.678 C309.127,41.323 312.601,49.1 309.956,56.015 L298.964,84.752 C297.63,84.788 296.294,84.855 294.953,84.989 C290.307,85.451 285.814,86.505 281.549,88.086 L281.549,55.116 L284.875,46.421 Z M331.902,61.339 C334.438,63.875 335.835,67.247 335.835,70.833 C335.835,74.42 334.438,77.792 331.902,80.327 L322.773,89.457 C316.683,86.718 310.058,85.127 303.232,84.791 L311.761,62.492 L312.913,61.339 C318.149,56.104 326.667,56.104 331.902,61.339 L331.902,61.339 Z M501.335,66.124 L435.797,0.586 C435.017,-0.195 433.75,-0.195 432.969,0.586 L335.753,97.802 C332.913,95.309 329.823,93.152 326.54,91.346 L334.73,83.156 C338.022,79.865 339.835,75.488 339.835,70.833 C339.835,66.179 338.022,61.802 334.73,58.511 C329.215,52.995 320.893,51.958 314.32,55.396 C316.405,46.983 311.939,38.116 303.641,34.942 C299.294,33.279 294.559,33.408 290.309,35.306 C286.058,37.204 282.801,40.644 281.138,44.992 L281.024,45.29 C279.149,37.69 272.293,32.031 264.122,32.031 C254.513,32.031 246.695,39.848 246.695,49.457 L246.695,138.189 C246.695,139.98 246.782,141.78 246.962,143.585 C247.983,153.85 251.868,163.459 258.226,171.487 L250.703,179.48 L239.392,168.169 L0,407.017 L2.825,409.849 L239.389,173.823 L302.383,236.817 L129.723,408.805 L132.546,411.639 L308.045,236.822 L292.988,221.765 L337.086,177.124 C337.758,176.487 338.427,175.846 339.065,175.176 L365.635,201.745 L365.639,201.742 C365.652,201.756 365.661,201.772 365.674,201.785 C366.064,202.176 366.577,202.371 367.088,202.371 C367.6,202.371 368.112,202.176 368.502,201.785 L458.384,111.904 L501.335,68.952 C501.71,68.577 501.921,68.069 501.921,67.538 C501.921,67.008 501.71,66.499 501.335,66.124 L501.335,66.124 Z" id="Fill-3"></path>
                                </g>
                            </g>
                        </g>
                    </g>
                </g>
            </g>
        </g>
    </g>
</svg>