<?xml version="1.0" encoding="UTF-8"?>
<svg width="112px" height="50px" viewBox="0 0 112 50" version="1.1" xmlns="http://www.w3.org/2000/svg" xmlns:xlink="http://www.w3.org/1999/xlink">
    <!-- Generator: Sketch 55.1 (78136) - https://sketchapp.com -->
    <title>Logo@3x</title>
    <desc>Created with Sketch.</desc>
    <g id="Collecting-ES" stroke="none" stroke-width="1" fill="none" fill-rule="evenodd">
        <g id="Goodbye-cash-pitfalls-Copy" transform="translate(-534.000000, -41.000000)" fill="#0D2E52">
            <g id="Header">
                <g id="Content" transform="translate(530.000000, 41.000000)">
                    <g id="Logo" transform="translate(4.000000, 0.000000)">
                        <path d="M3.63057987,18.4 L20.8584549,18.4 L27.1619549,3.40789474 L7.78507987,3.40789474 L3.63057987,18.4 Z M11.8590799,49.4078947 C11.3515799,49.4078947 10.8397049,49.2605263 10.3838299,48.9587719 C9.31282987,48.2508772 8.89807987,46.9236842 9.37407987,45.7289474 C9.37757987,45.7201754 9.38195487,45.7105263 9.38545487,45.7008772 L17.8887049,25.4640351 C18.2535799,24.5964912 19.2510799,24.1903509 20.1155799,24.5552632 C20.9800799,24.9201754 21.3860799,25.9192982 21.0220799,26.7868421 L13.9695799,43.5701754 L35.6765799,21.8078947 L2.67157987,21.8078947 C1.84382987,21.8078947 1.07645487,21.4333333 0.566329867,20.7780702 C0.0570798671,20.1236842 -0.119670133,19.2868421 0.0807048671,18.4807018 C0.0842048671,18.4666667 0.0877048671,18.4526316 0.0920798671,18.4377193 L4.64645487,2.00175439 C4.95357987,0.821052632 6.01232987,0 7.23120487,0 L28.2583299,0 C29.1464549,0 29.9733299,0.439473684 30.4712049,1.17719298 C30.9682049,1.91403509 31.0679549,2.84649123 30.7380799,3.67280702 C30.7354549,3.68245614 30.7310799,3.69122807 30.7267049,3.70087719 L24.5474549,18.4 L37.4353299,18.4 C38.5194549,18.4 39.4872049,19.0491228 39.9028299,20.0526316 C40.3175799,21.0570175 40.0900799,22.2026316 39.3235799,22.9710526 L13.7429549,48.6175439 C13.2223299,49.1394737 12.5450799,49.4078947 11.8590799,49.4078947 L11.8590799,49.4078947 Z" id="Symbol"></path>
                        <g id="Text" transform="translate(47.250000, 16.543860)">
                            <path d="M10.7615375,18.4017544 L3.4964125,18.4017544 L3.4964125,3.20263158 C3.4964125,2.25701754 2.7290375,1.48859649 1.7866625,1.48859649 C0.8442875,1.48859649 0.0769125,2.25701754 0.0769125,3.20263158 L0.0769125,21.1789474 C0.0769125,21.5377193 0.3682875,21.8298246 0.7261625,21.8298246 L10.7615375,21.8298246 C11.7039125,21.8298246 12.4712875,21.0605263 12.4712875,20.1157895 C12.4712875,19.1701754 11.7039125,18.4017544 10.7615375,18.4017544" id="Fill-4"></path>
                            <path d="M25.8724375,7.36614035 C24.9449375,7.36614035 24.1915625,8.1222807 24.1915625,9.05122807 L24.1915625,14.2187719 C24.1915625,17.3670175 22.8851875,19.1003509 20.5130625,19.1003509 C18.3421875,19.1003509 17.0961875,17.5652632 17.0961875,14.8889474 L17.0961875,9.05122807 C17.0961875,8.1222807 16.3419375,7.36614035 15.4161875,7.36614035 C14.4886875,7.36614035 13.7353125,8.1222807 13.7353125,9.05122807 L13.7353125,15.0345614 C13.7353125,19.7942105 15.9175625,22.2082456 20.2225625,22.2082456 C21.9244375,22.2082456 23.2728125,21.6503509 24.2396875,20.5468421 C24.4199375,21.282807 25.0840625,21.8292982 25.8724375,21.8292982 C26.7990625,21.8292982 27.5524375,21.0740351 27.5524375,20.1450877 L27.5524375,9.05122807 C27.5524375,8.1222807 26.7990625,7.36614035 25.8724375,7.36614035" id="Fill-6"></path>
                            <path d="M36.49975,6.98745614 C34.65175,6.93921053 32.776625,7.73921053 31.352125,9.16552632 C29.862875,10.6567544 29.03425,12.6602632 29.078,14.6523684 C29.04825,16.6471053 29.86725,18.6207895 31.322375,20.0690351 C32.69525,21.4348246 34.521375,22.2102632 36.348375,22.2102632 C36.397375,22.2102632 36.4455,22.209386 36.4945,22.2085088 C38.7065,22.2085088 40.698875,21.332193 41.958,19.8041228 C42.280875,19.4128947 42.392875,18.9032456 42.265125,18.4085088 C42.1365,17.9128947 41.776,17.505 41.30175,17.3190351 C40.65425,17.0655263 39.918375,17.2690351 39.472125,17.8242982 C38.798375,18.6664035 37.7405,19.1295614 36.4945,19.1295614 C35.27825,19.1295614 34.293875,18.7067544 33.569375,17.8742982 C32.837875,17.032193 32.46775,15.9497368 32.46775,14.6558772 C32.46775,13.3251754 32.82825,12.2628947 33.569375,11.409386 C34.3105,10.5567544 35.294875,10.1242982 36.4945,10.1242982 C37.9015,10.1242982 38.9655,10.6497368 39.6585,11.6865789 C40.06625,12.2971053 40.838875,12.5471053 41.5345,12.2962281 C42.016625,12.1225439 42.382375,11.7400877 42.5355,11.2488596 C42.685125,10.7716667 42.606375,10.2672807 42.321125,9.86464912 C41.045375,8.06289474 38.8675,6.98745614 36.49975,6.98745614" id="Fill-8"></path>
                            <path d="M46.4631125,0.824035088 C45.1821125,0.824035088 44.1006125,1.89596491 44.1006125,3.16350877 C44.1006125,4.43280702 45.1821125,5.50385965 46.4631125,5.50385965 C47.6758625,5.50385965 48.7398625,4.41 48.7398625,3.16350877 C48.7398625,1.91789474 47.6758625,0.824035088 46.4631125,0.824035088" id="Fill-10"></path>
                            <path d="M46.3614375,7.36614035 C45.4190625,7.36614035 44.6525625,8.1345614 44.6525625,9.08017544 L44.6525625,20.1161404 C44.6525625,21.0608772 45.4190625,21.8292982 46.3614375,21.8292982 C47.3038125,21.8292982 48.0711875,21.0608772 48.0711875,20.1161404 L48.0711875,9.08017544 C48.0711875,8.1345614 47.3038125,7.36614035 46.3614375,7.36614035" id="Fill-12"></path>
                            <path d="M61.2142125,14.5686842 C61.2142125,17.2792105 59.5202125,19.2467544 57.1874625,19.2467544 C56.1794625,19.2467544 55.2318375,18.845 54.5195875,18.1169298 C53.6997125,17.2792105 53.2420875,16.0713158 53.2184625,14.6958772 L53.2394625,14.6958772 L53.2482125,14.4616667 C53.3654625,11.3616667 55.4330875,9.94938596 57.3038375,9.94938596 C59.6059625,9.94938596 61.2142125,11.8485088 61.2142125,14.5686842 M63.0254625,1.48798246 C62.0743375,1.48798246 61.3017125,2.26429825 61.3017125,3.21692982 L61.3017125,8.48798246 C60.1370875,7.45464912 58.5839625,6.87131579 56.9555875,6.87131579 C55.1574625,6.87131579 53.4730875,7.53885965 52.2122125,8.75114035 C50.8699625,10.0432456 50.0824625,11.8660526 49.9302125,14.0344737 L49.8952125,14.0344737 L49.8873375,14.2686842 C49.7989625,16.6546491 50.5418375,18.7914912 51.9777125,20.2862281 C53.2420875,21.6011404 54.9474625,22.3248246 56.7814625,22.3248246 C58.4955875,22.3248246 60.1239625,21.6414912 61.3332125,20.4309649 C61.4872125,21.2265789 62.1872125,21.8292105 63.0254625,21.8292105 C63.9765875,21.8292105 64.7500875,21.0546491 64.7500875,20.1011404 L64.7500875,3.21692982 C64.7500875,2.26429825 63.9765875,1.48798246 63.0254625,1.48798246" id="Fill-14"></path>
                        </g>
                    </g>
                </g>
            </g>
        </g>
    </g>
</svg>