<?xml version="1.0" encoding="UTF-8"?>
<svg width="30px" height="30px" viewBox="0 0 30 30" version="1.1" xmlns="http://www.w3.org/2000/svg" xmlns:xlink="http://www.w3.org/1999/xlink">
    <!-- Generator: Sketch 55.1 (78136) - https://sketchapp.com -->
    <title>Shape</title>
    <desc>Created with Sketch.</desc>
    <g id="Collecting-ES" stroke="none" stroke-width="1" fill="none" fill-rule="evenodd">
        <g id="Goodbye-cash-pitfalls-Copy" transform="translate(-1568.000000, -50.000000)" fill="#0F355E" fill-rule="nonzero">
            <g id="Header">
                <path d="M1590.44659,80 C1589.46846,80 1588.48056,79.8759598 1587.49364,79.6278793 C1580.35519,77.830761 1570.16904,67.6438348 1568.37197,60.5051729 C1567.64631,57.6249001 1567.98668,54.7270468 1569.35548,52.1270854 C1569.95124,50.9950962 1571.01532,50.2362044 1572.27522,50.0447721 C1573.52291,49.8582235 1574.75547,50.259645 1575.65107,51.1552741 L1578.57082,54.0755914 C1579.72084,55.2251611 1580.05388,56.9832117 1579.39952,58.4492305 C1579.05671,59.218866 1578.61965,59.8722748 1578.09957,60.3908997 C1577.74309,60.74837 1577.67179,61.3382935 1577.88813,62.1450435 C1578.67434,65.0809879 1582.91796,69.3247265 1585.85431,70.1119425 C1586.66201,70.327792 1587.25143,70.25747 1587.60791,69.8999997 C1588.12848,69.3794214 1588.78235,68.9418622 1589.55099,68.600019 C1591.01648,67.9436801 1592.7735,68.2786864 1593.92402,69.4282561 L1596.84376,72.3485734 L1596.84376,72.3485734 C1597.73937,73.2442025 1598.14371,74.4748379 1597.95423,75.7250072 C1597.76329,76.9839667 1597.00394,78.048564 1595.87198,78.6443477 C1594.16232,79.5448602 1592.32424,80 1590.44659,80 Z M1572.87197,52.0001151 C1572.77381,52.0001151 1572.67468,52.0079286 1572.57506,52.022579 C1571.95048,52.1173184 1571.4221,52.4952993 1571.1252,53.0588521 C1569.97371,55.2466484 1569.69975,57.5877856 1570.31163,60.0168255 C1571.93925,66.481568 1581.51742,76.0609901 1587.98198,77.6881635 C1590.41143,78.3005511 1592.75202,78.0251232 1594.94024,76.8745767 C1595.50426,76.5776615 1595.88175,76.0492697 1595.97648,75.424185 C1596.06975,74.8098441 1595.87051,74.2042933 1595.42955,73.7628273 L1592.5098,70.84251 C1591.94187,70.276027 1591.08094,70.1090123 1590.36504,70.4264381 C1589.82055,70.6696351 1589.36884,70.9675269 1589.02213,71.3142536 C1588.40438,71.9315246 1587.26413,72.5595394 1585.33619,72.0438446 C1581.67173,71.0622664 1576.93783,66.3272502 1575.95579,62.6626916 C1575.43962,60.7356729 1576.06811,59.5939167 1576.68585,58.9766456 C1577.03159,58.6308957 1577.32996,58.1796627 1577.57266,57.634667 C1577.89203,56.9197264 1577.72453,56.0582816 1577.1566,55.4898453 L1574.23686,52.5695281 C1573.86719,52.2003375 1573.38179,52.0001151 1572.87197,52.0001151 Z" id="Shape"></path>
            </g>
        </g>
    </g>
</svg>