<?xml version="1.0" encoding="UTF-8"?>
<svg width="30px" height="30px" viewBox="0 0 30 30" version="1.1" xmlns="http://www.w3.org/2000/svg" xmlns:xlink="http://www.w3.org/1999/xlink">
    <!-- Generator: Sketch 55.1 (78136) - https://sketchapp.com -->
    <title>Shape</title>
    <desc>Created with Sketch.</desc>
    <g id="Collecting-product" stroke="none" stroke-width="1" fill="none" fill-rule="evenodd">
        <g id="Goodbye-cash-pitfalls-Copy" transform="translate(-537.000000, -5147.000000)" fill="#FFFFFF" fill-rule="nonzero">
            <g id="Find-us" transform="translate(0.000000, 4974.000000)">
                <g id="Group-14" transform="translate(537.000000, 173.000000)">
                    <g id="Group-23">
                        <path d="M22.4441993,29.9959381 C21.466172,29.9959381 20.478379,29.8719147 19.4915626,29.6238678 C12.3538673,27.8269928 2.16880865,17.6414459 0.371933653,10.5037506 C-0.353652347,7.62386767 -0.0133202472,4.72640677 1.35533205,2.12679737 C1.95103515,0.994961468 3.01500005,0.236172368 4.27476565,0.0447660685 C5.52232425,-0.141757332 6.75474615,0.259609868 7.65025395,1.15511767 L10.5696876,4.07503957 C11.7195899,5.22445367 12.0525978,6.98226617 11.3983009,8.44808647 C11.0555275,9.21761777 10.6185157,9.87093807 10.0984962,10.3894928 C9.74205085,10.7469147 9.67076175,11.3367584 9.88707035,12.1433991 C10.6732032,15.078946 14.9163673,19.32211 17.8524024,20.1092194 C18.6600196,20.3250397 19.2493751,20.2547272 19.6058204,19.8973053 C20.1263282,19.3767975 20.7801368,18.9392975 21.5486915,18.5975006 C23.0140235,17.9412506 24.7708595,18.2762115 25.9212501,19.4256256 L28.8406837,22.3455475 L28.8406837,22.3455475 C29.7361915,23.2410553 30.1404884,24.4715241 29.9510353,25.7215241 C29.7601173,26.9803132 29.00084,28.0447663 27.869004,28.6404694 C26.1595313,29.5408599 24.3216407,29.9959381 22.4441993,29.9959381 Z M4.87144535,1.99984427 C4.77330085,1.99984427 4.67417975,2.00765677 4.57457035,2.02230517 C3.95005865,2.11703177 3.42173835,2.49496147 3.12486335,3.05843797 C1.97349615,5.24593797 1.69957035,7.58675827 2.31138675,10.0154693 C3.93882815,16.4793365 13.5159766,26.0574615 19.9798438,27.6844146 C22.409043,28.2967193 24.7493751,28.0213287 26.9373633,26.870938 C27.5013281,26.574063 27.8787696,26.0457427 27.9734961,25.4207427 C28.0667578,24.8064849 27.8675391,24.2010161 27.4266211,23.7596099 L24.5071875,20.839688 C23.9393164,20.2732817 23.0784766,20.1062896 22.3626562,20.4236724 C21.8182226,20.6668365 21.3665624,20.964688 21.0198828,21.3113677 C20.402207,21.9285552 19.2620703,22.5564849 17.3343359,22.0408599 C13.6702734,21.0594146 8.93687495,16.3250396 7.95494135,12.6609771 C7.43882805,10.7342193 8.06724605,9.59261767 8.68492185,8.97543017 C9.03062495,8.62972707 9.32896485,8.17855517 9.57164065,7.63363327 C9.89097655,6.91878947 9.72349615,6.05746137 9.15562505,5.48910197 L6.23619145,2.56918017 C5.86656255,2.20003957 5.38121095,1.99984427 4.87144535,1.99984427 Z" id="Shape"></path>
                    </g>
                </g>
            </g>
        </g>
    </g>
</svg>