<?xml version="1.0" encoding="UTF-8"?>
<svg width="86px" height="113px" viewBox="0 0 86 113" version="1.1" xmlns="http://www.w3.org/2000/svg" xmlns:xlink="http://www.w3.org/1999/xlink">
    <!-- Generator: Sketch 55.1 (78136) - https://sketchapp.com -->
    <title>Group 16</title>
    <desc>Created with Sketch.</desc>
    <g id="Collecting-ES" stroke="none" stroke-width="1" fill="none" fill-rule="evenodd">
        <g id="Goodbye-cash-pitfalls-Copy" transform="translate(-1704.000000, -801.000000)">
            <rect fill="#FFFFFF" x="0" y="0" width="2354" height="6007"></rect>
            <g id="About" transform="translate(0.000000, 640.000000)">
                <polygon id="About-background" fill="#FFFFFF" points="0 0 2354 0 2354 1064 0 1064"></polygon>
                <g id="Top-feature" transform="translate(1186.000000, 131.000000)">
                    <rect id="Rectangle" fill="#152D38" x="0" y="0" width="631" height="487" rx="10"></rect>
                    <g id="Group" transform="translate(30.000000, 30.000000)">
                        <text id="La-crisis-del-Corona" font-family="NeutrifPro-Regular, Neutrif Pro" font-size="18" font-weight="normal" line-spacing="28" fill="#FFFFFF">
                            <tspan x="0" y="111">La crisis del Coronavirus nos afecta a todos. En los proximos </tspan>
                            <tspan x="0" y="139">meses va a ser dificil  generar nuevo negocio y conseguir </tspan>
                            <tspan x="0" y="167">credito, pero tambien va a ser dificil cobrar facturas ya </tspan>
                            <tspan x="0" y="195">vencidas.</tspan>
                            <tspan x="0" y="233">Es comun recurir a medidas legales para cobrar facturas </tspan>
                            <tspan x="0" y="261">atrasadas. Sin embargo, esto no es muy efectivo en un </tspan>
                            <tspan x="0" y="289">momento de crisis y puede dañar la relacion con tu clientes.</tspan>
                            <tspan x="0" y="327">Lucid te ayuda a gestionar plazos de pago automatizados y </tspan>
                            <tspan x="0" y="355">customizados para cada uno de tus clientes de manera que </tspan>
                            <tspan x="0" y="383">puedas emepzar a ingresar una parte de tus facturas </tspan>
                            <tspan x="0" y="411">atrasadas.</tspan>
                        </text>
                        <g id="Group-16" transform="translate(488.000000, 0.000000)" fill="#F5CB2D" fill-rule="nonzero">
                            <g id="Virus">
                                <g id="Group">
                                    <path d="M34.69368,0.516501333 C32.86563,0.516501333 31.35993,1.99859067 31.35993,3.797624 C31.35993,5.211844 32.296362,6.417 33.582444,6.87340267 L33.582444,11.583212 C32.851686,11.5034387 32.112024,11.453012 31.35993,11.453012 C30.921198,11.453012 30.486834,11.4695453 30.055494,11.500132 C29.605296,10.2104493 28.369488,9.26585867 26.914944,9.2659 C25.086936,9.2659 23.581194,10.7477413 23.581194,12.5467333 C23.581194,12.7029733 23.606394,12.8530133 23.629074,13.0038387 C22.557948,13.4492467 21.53571,13.9829427 20.56887,14.5972387 L16.577484,10.669208 C16.787064,10.2413253 16.913904,9.76880267 16.913904,9.2659 C16.913904,7.46686667 15.408162,5.98502533 13.580154,5.98506667 C11.752146,5.98506667 10.246404,7.466908 10.246404,9.2659 C10.246404,11.064892 11.752146,12.546692 13.580154,12.5467333 C14.09121,12.5467333 14.57127,12.4219067 15.006096,12.2156533 L18.750018,15.9001893 C17.817912,16.6496867 16.95813,17.479536 16.175922,18.380024 C15.725724,18.1551707 15.226554,18.0146373 14.69139,18.0146373 C12.863382,18.0146373 11.35764,19.4964373 11.35764,21.2954707 C11.35764,22.385224 11.915484,23.3523413 12.757584,23.950476 C12.394704,24.857784 12.098268,25.796464 11.874156,26.7634987 L6.704292,26.7634987 C6.24057,25.4978307 5.015976,24.576304 3.578904,24.576304 C1.750896,24.5763453 0.245154,26.0581453 0.245154,27.8571373 C0.245154,29.6561293 1.750896,31.1379707 3.578904,31.1379707 C5.015976,31.138012 6.240444,30.2164027 6.704292,28.9507347 L11.489982,28.9507347 C11.408922,29.6698933 11.357682,30.3978147 11.357682,31.1379707 C11.357682,31.5697387 11.374482,31.997208 11.405562,32.42166 C10.095036,32.8647533 9.135252,34.080904 9.135252,35.5124013 C9.135252,37.3113933 10.640994,38.7932347 12.469002,38.7932347 C12.627762,38.7932347 12.780222,38.7684347 12.933522,38.7461147 C13.279602,39.5525693 13.681374,40.3287267 14.129346,41.0764467 L9.445632,45.6858573 C9.011688,45.480844 8.533644,45.3547773 8.024016,45.3547773 C6.196008,45.354736 4.690266,46.8365773 4.690266,48.6356107 C4.690266,50.4346027 6.196008,51.916444 8.024016,51.916444 C9.852024,51.9164027 11.357766,50.4346027 11.357766,48.6356107 C11.357766,48.1340307 11.229666,47.6635747 11.021346,47.23656 L15.390354,42.93686 C16.273656,44.0901013 17.281698,45.143564 18.396378,46.081004 C18.167898,46.524056 18.025098,47.015344 18.025098,47.5420133 C18.025098,49.3410053 19.53084,50.8228467 21.358848,50.8228467 C22.466178,50.8228467 23.448894,50.273816 24.056676,49.445124 C24.97866,49.8026573 25.932438,50.0939747 26.915112,50.314488 L26.915112,55.402332 C25.628988,55.8587347 24.692556,57.0638907 24.692598,58.4781107 C24.692556,60.2771027 26.198298,61.758944 28.026348,61.758944 C29.854356,61.758944 31.360098,60.2771027 31.360098,58.4781107 C31.360098,57.0638907 30.423666,55.858776 29.137584,55.402332 L29.137584,50.6925227 C29.868342,50.772296 30.608004,50.8227227 31.360098,50.8227227 C31.79883,50.8227227 32.233194,50.8061893 32.664534,50.7756027 C33.114774,52.0652853 34.35054,53.0098347 35.805084,53.0098347 C37.633092,53.0098347 39.138834,51.5280347 39.138834,49.7290013 C39.138834,49.5727613 39.113634,49.4227213 39.090954,49.2719373 C40.162164,48.8265293 41.184234,48.292792 42.151242,47.678496 L46.142586,51.6065267 C45.934686,52.0330453 45.810366,52.5063533 45.810366,53.0077267 C45.810366,54.8067187 47.31174,56.2928173 49.13979,56.2928173 C50.96784,56.2928173 52.469172,54.8067187 52.469172,53.0077267 C52.469172,51.2086933 50.96784,49.7290013 49.13979,49.7290013 C48.628356,49.7290013 48.148464,49.8542413 47.713806,50.0600813 L43.969842,46.3755453 C44.902074,45.6260893 45.76194,44.79624 46.543938,43.8957107 C46.994178,44.120564 47.49339,44.2610973 48.028512,44.2610973 C49.85652,44.2610973 51.362262,42.779256 51.362262,40.980264 C51.362262,39.8904693 50.804376,38.923352 49.96236,38.3252587 C50.32524,37.4179093 50.621676,36.4792707 50.845704,35.5121947 L56.01561,35.5121947 C56.479416,36.7778627 57.703968,37.699472 59.14104,37.6994307 C60.96909,37.699472 62.47479,36.2176307 62.47479,34.4185973 C62.47479,32.6196053 60.96909,31.137764 59.14104,31.137764 C57.703968,31.137764 56.479416,32.0592907 56.01561,33.3249587 L51.229878,33.3249587 C51.310938,32.6058413 51.362178,31.8778787 51.362178,31.137764 C51.362178,31.069564 51.357978,31.002604 51.353778,30.9348173 C52.64322,30.4802333 53.582844,29.2735067 53.582802,27.8569307 C53.582844,26.0579387 52.077102,24.5760973 50.249052,24.5760973 C50.232252,24.5760973 50.211252,24.580024 50.194872,24.5802307 C49.76664,23.3960307 49.232862,22.2626707 48.593118,21.1947413 L53.272506,16.589588 C53.706576,16.7946013 54.18462,16.920668 54.69429,16.920668 C56.522256,16.9206267 58.027998,15.4388267 58.02804,13.6398347 C58.02804,11.8408427 56.522298,10.3590013 54.69429,10.3590013 C52.86624,10.3590013 51.360498,11.8408427 51.36054,13.6398347 C51.36054,14.1414147 51.48864,14.6118707 51.69696,15.0388853 L47.323584,19.3428427 C46.440786,18.19018 45.435852,17.1358907 44.321886,16.19874 C44.551206,15.75482 44.693166,15.261424 44.693166,14.7334733 C44.693166,12.9344813 43.187466,11.45264 41.359416,11.45264 C40.252044,11.45264 39.269328,12.0016707 38.661588,12.8303213 C37.739604,12.4732013 36.785826,12.1814707 35.803152,11.9609987 L35.803152,6.87311333 C37.089234,6.41671067 38.025624,5.21151333 38.025666,3.79733467 C38.025666,1.99834267 36.519924,0.516501333 34.691916,0.516501333 L34.69368,0.516501333 Z M34.69368,2.70402667 C35.320572,2.70402667 35.804916,3.18068267 35.804916,3.797624 C35.804916,4.41456533 35.32053,4.89126267 34.69368,4.89126267 C34.066788,4.89126267 33.582444,4.41456533 33.582444,3.797624 C33.582444,3.18068267 34.066788,2.70402667 34.69368,2.70402667 Z M13.579944,8.172096 C14.206794,8.172096 14.69118,8.648752 14.69118,9.26569333 C14.69118,9.88263467 14.206794,10.3592907 13.579944,10.3592907 C12.953094,10.3592907 12.468666,9.88263467 12.468666,9.26569333 C12.468666,8.648752 12.953094,8.172096 13.579944,8.172096 Z M26.914944,11.4529293 C27.541878,11.4529293 28.02618,11.9295853 28.02618,12.5465267 C28.026138,13.1634267 27.541836,13.640124 26.914944,13.640124 C26.288094,13.640124 25.803666,13.1634267 25.803666,12.5465267 C25.803666,11.9295853 26.288094,11.4529707 26.914944,11.4529293 Z M54.69618,12.5465267 C55.32303,12.5465267 55.807416,13.0231827 55.807416,13.640124 C55.807416,14.2570653 55.32303,14.7337627 54.69618,14.7337627 C54.069288,14.7337627 53.584986,14.2570653 53.584944,13.640124 C53.584944,13.0231827 54.069246,12.5465267 54.69618,12.5465267 Z M31.35993,13.6400827 C33.736374,13.6400827 35.98308,14.1310813 38.051286,14.964444 C38.175186,16.6558453 39.613308,18.014596 41.36118,18.014596 C41.853294,18.014596 42.317058,17.899276 42.739368,17.707076 C45.178938,19.709552 47.054994,22.3452547 48.128514,25.3559747 C47.396454,25.9599373 46.917444,26.853316 46.917444,27.8571787 C46.917444,29.2690013 47.850684,30.4725867 49.133406,30.930808 C49.134288,31.000248 49.141806,31.068448 49.141806,31.137888 C49.141806,33.4766107 48.64293,35.6876547 47.796168,37.723032 C46.077444,37.8449653 44.696778,39.26026 44.69682,40.980388 C44.696778,41.465352 44.81358,41.922788 45.0093,42.3388493 C43.159452,44.5212493 40.775154,46.2421213 38.059644,47.3327013 C37.463538,46.7893333 36.674484,46.448416 35.806596,46.448416 C34.389474,46.448416 33.176976,47.34382 32.698596,48.5822493 C32.256672,48.615316 31.81227,48.6355693 31.36161,48.6355693 C28.985166,48.6355693 26.73846,48.144612 24.670254,47.3112907 C24.546354,45.6198893 23.108232,44.26118 21.36036,44.2611387 C20.867532,44.2611387 20.402802,44.3760453 19.979946,44.5686587 C17.762262,42.748008 16.013676,40.402052 14.905548,37.7293147 C15.457722,37.1428773 15.804096,36.3663067 15.804096,35.512236 C15.804096,34.1176493 14.894334,32.924356 13.635846,32.453528 C13.602246,32.01866 13.581666,31.581312 13.581666,31.1378053 C13.581666,28.7990827 14.0805,26.5880387 14.927262,24.55262 C16.645944,24.4306867 18.026652,23.015392 18.026652,21.2953053 C18.026652,20.8103413 17.909892,20.352864 17.714172,19.9368027 C19.564062,17.754196 21.94794,16.0335307 24.663786,14.9429507 C25.259724,15.4863187 26.04882,15.827236 26.916666,15.827236 C28.333746,15.827236 29.546244,14.9318733 30.024666,13.6934027 C30.46659,13.660336 30.910992,13.6400827 31.361652,13.6400827 L31.35993,13.6400827 Z M41.36118,13.640124 C41.988072,13.640124 42.472458,14.1168213 42.472416,14.7337627 C42.472416,15.350704 41.988072,15.82736 41.36118,15.82736 C40.734288,15.82736 40.249944,15.350704 40.249944,14.7337627 C40.249944,14.1168213 40.734288,13.640124 41.36118,13.640124 Z M14.69118,20.2017907 C15.31803,20.2017907 15.802416,20.678488 15.802416,21.2954293 C15.802416,21.9123707 15.31803,22.3890267 14.69118,22.3890267 C14.06433,22.3890267 13.579944,21.9123707 13.579944,21.2954293 C13.579944,20.678488 14.06433,20.2017907 14.69118,20.2017907 Z M3.578694,26.7634573 C4.205544,26.7634573 4.68993,27.2401547 4.68993,27.857096 C4.68993,28.4740373 4.205544,28.9506933 3.578694,28.9506933 C2.951844,28.950652 2.467416,28.4740373 2.467416,27.857096 C2.467416,27.240196 2.951844,26.7634573 3.578694,26.7634573 Z M50.251194,26.7634573 C50.878086,26.7634573 51.36243,27.2401547 51.36243,27.857096 C51.36243,28.4740787 50.878086,28.9506933 50.251194,28.9506933 C49.624302,28.950652 49.139916,28.4740373 49.139916,27.857096 C49.139916,27.240196 49.624302,26.7634573 50.251194,26.7634573 Z M59.141166,33.325124 C59.768058,33.325124 60.252486,33.8018213 60.252444,34.4187627 C60.252486,35.035704 59.768058,35.51236 59.141166,35.51236 C58.514274,35.51236 58.02993,35.035704 58.02993,34.4187627 C58.02993,33.8018213 58.514274,33.325124 59.141166,33.325124 Z M12.468666,34.4187627 C13.095516,34.4187627 13.579944,34.8954187 13.579944,35.51236 C13.579944,36.12926 13.095516,36.6059573 12.468666,36.6059573 C11.841816,36.6059573 11.35743,36.1293013 11.35743,35.51236 C11.35743,34.8954187 11.841816,34.4187627 12.468666,34.4187627 Z M48.02868,39.8867907 C48.655572,39.8867907 49.139916,40.363488 49.139916,40.9804293 C49.139916,41.5973707 48.655572,42.0740267 48.02868,42.0740267 C47.401788,42.0740267 46.917444,41.5973707 46.917444,40.9804293 C46.917444,40.363488 47.401788,39.8867907 48.02868,39.8867907 Z M21.35868,46.4484573 C21.98553,46.4484573 22.469916,46.9251547 22.469916,47.542096 C22.469916,48.1590373 21.98553,48.6356933 21.35868,48.6356933 C20.73183,48.6356933 20.247444,48.1590373 20.247444,47.542096 C20.247444,46.9251547 20.731704,46.4484573 21.35868,46.4484573 Z M8.02368,47.542096 C8.65053,47.542096 9.134916,48.018752 9.134916,48.6356933 C9.134916,49.2526347 8.65053,49.7292907 8.02368,49.7292907 C7.39683,49.7292907 6.912444,49.2526347 6.912444,48.6356933 C6.912444,48.018752 7.39683,47.542096 8.02368,47.542096 Z M35.804916,48.6356933 C36.431808,48.6356933 36.916194,49.1123493 36.916194,49.7292907 C36.916194,50.346232 36.431808,50.8229293 35.804916,50.8229293 C35.178024,50.8229293 34.69368,50.346232 34.69368,49.7292907 C34.69368,49.1123493 35.178024,48.6356933 35.804916,48.6356933 Z M49.139916,51.9165267 C49.766808,51.9165267 50.246826,52.3910747 50.246826,53.008016 C50.246826,53.6249573 49.766808,54.1058707 49.139916,54.1058707 C48.513024,54.1058707 48.033006,53.6249573 48.033006,53.008016 C48.033006,52.3910747 48.513024,51.9165267 49.139916,51.9165267 Z M28.02618,57.384596 C28.65303,57.384596 29.137416,57.861252 29.137416,58.4781933 C29.137416,59.0951347 28.65303,59.5717907 28.02618,59.5717907 C27.399288,59.5717907 26.914944,59.0951347 26.914944,58.4781933 C26.914944,57.861252 27.399288,57.384596 28.02618,57.384596 Z" id="Shape"></path>
                                    <path d="M28.02618,37.699596 C26.198172,37.699596 24.69243,39.1814373 24.69243,40.9804293 C24.69243,42.7794627 26.19813,44.2612627 28.02618,44.2612627 C29.854188,44.2612627 31.35993,42.7794213 31.35993,40.9804293 C31.35993,39.1814787 29.854146,37.699596 28.02618,37.699596 L28.02618,37.699596 Z M28.02618,39.8867907 C28.65303,39.8867907 29.137458,40.3635293 29.137458,40.9804293 C29.137458,41.5973707 28.65303,42.0740267 28.02618,42.0740267 C27.399288,42.0740267 26.914944,41.5973707 26.914944,40.9804293 C26.914986,40.363488 27.399288,39.8867907 28.02618,39.8867907 Z" id="Shape"></path>
                                    <path d="M23.581194,23.482624 C21.753186,23.482624 20.247444,24.9644653 20.247444,26.7634573 C20.247444,28.562408 21.753228,30.0442907 23.581194,30.0442907 C25.409202,30.0442907 26.914944,28.5624493 26.914944,26.7634573 C26.914944,24.964424 25.409244,23.482624 23.581194,23.482624 Z M23.581194,25.66986 C24.208086,25.66986 24.69243,26.146516 24.69243,26.7634573 C24.69243,27.3803987 24.208086,27.8571373 23.581194,27.857096 C22.954344,27.857096 22.469958,27.3803987 22.469958,26.7634573 C22.469958,26.146516 22.954302,25.66986 23.581194,25.66986 Z" id="Shape"></path>
                                    <path d="M36.916194,19.1081933 C35.088186,19.1081933 33.582444,20.5900347 33.582444,22.3890267 C33.582444,24.1880187 35.088186,25.66986 36.916194,25.66986 C38.744244,25.66986 40.249944,24.1880187 40.249944,22.3890267 C40.249944,20.5899933 38.744244,19.1081933 36.916194,19.1081933 Z M36.916194,21.2954293 C37.543086,21.2954293 38.02743,21.772044 38.02743,22.3890267 C38.02743,23.005968 37.543086,23.482624 36.916194,23.482624 C36.289344,23.482624 35.804958,23.0059267 35.804958,22.3890267 C35.804958,21.7720853 36.289344,21.2954707 36.916194,21.2954293 Z" id="Shape"></path>
                                    <path d="M24.69243,34.4187627 C24.6924204,35.0227359 24.1949087,35.5123505 23.581194,35.51236 C23.28647,35.5123664 23.0038147,35.3971518 22.7954095,35.1920623 C22.5870042,34.9869729 22.4699206,34.7088085 22.469916,34.4187627 C22.4699206,34.1287169 22.5870042,33.8505525 22.7954095,33.645463 C23.0038147,33.4403735 23.28647,33.3251589 23.581194,33.3251653 C24.1949087,33.3251748 24.6924204,33.8147895 24.69243,34.4187627 L24.69243,34.4187627 Z" id="Path"></path>
                                    <path d="M21.358722,38.7931933 C21.3587174,39.0832391 21.2416338,39.3614035 21.0332285,39.566493 C20.8248233,39.7715825 20.542168,39.8867971 20.247444,39.8867907 C19.6337293,39.8867812 19.1362176,39.3971665 19.136208,38.7931933 C19.1362015,38.5031475 19.2532744,38.2249788 19.4616718,38.0198816 C19.6700691,37.8147843 19.95272,37.6995592 20.247444,37.6995547 C20.5421752,37.6995483 20.8248369,37.8147685 21.0332434,38.0198669 C21.2416499,38.2249654 21.3587285,38.5031404 21.358722,38.7931933 L21.358722,38.7931933 Z" id="Path"></path>
                                    <path d="M36.916236,43.1676653 C36.9162314,43.4577111 36.7991478,43.7358755 36.5907425,43.940965 C36.3823373,44.1460545 36.099682,44.2612691 35.804958,44.2612627 C35.1912433,44.2612532 34.6937316,43.7716385 34.693722,43.1676653 C34.6937155,42.8776195 34.8107884,42.5994508 35.0191858,42.3943536 C35.2275831,42.1892563 35.510234,42.0740312 35.804958,42.0740267 C36.0996892,42.0740203 36.3823509,42.1892405 36.5907574,42.3943389 C36.7991639,42.5994374 36.9162425,42.8776124 36.916236,43.1676653 L36.916236,43.1676653 Z" id="Path"></path>
                                    <path d="M30.248694,21.295388 C30.2486844,21.8993652 29.751171,22.3889815 29.137458,22.3889853 C28.523745,22.3889815 28.0262316,21.8993652 28.026222,21.295388 C28.0262316,20.6914108 28.523745,20.2017945 29.137458,20.2017907 C29.751171,20.2017945 30.2486844,20.6914108 30.248694,21.295388 L30.248694,21.295388 Z" id="Path"></path>
                                    <path d="M41.36118,28.9506933 C39.53313,28.9506933 38.02743,30.4324933 38.02743,32.2315267 C38.02743,34.0305187 39.533172,35.51236 41.36118,35.51236 C43.189146,35.51236 44.69493,34.0304773 44.69493,32.2315267 C44.69493,30.4325347 43.189188,28.9506933 41.36118,28.9506933 Z M41.36118,31.1379293 C41.988072,31.1379293 42.472458,31.6145853 42.472458,32.2315267 C42.472458,32.8484267 41.98803,33.325124 41.36118,33.325124 C40.734288,33.325124 40.249944,32.848468 40.249944,32.2315267 C40.249944,31.6145853 40.734288,31.1379293 41.36118,31.1379293 Z" id="Shape"></path>
                                    <path d="M30.248694,32.2315267 C30.2486844,32.8354999 29.7511727,33.3251145 29.137458,33.325124 C28.842734,33.3251304 28.5600787,33.2099158 28.3516735,33.0048263 C28.1432682,32.7997369 28.0261846,32.5215725 28.02618,32.2315267 C28.0261846,31.9414809 28.1432682,31.6633165 28.3516735,31.458227 C28.5600787,31.2531375 28.842734,31.1379229 29.137458,31.1379293 C29.7511727,31.1379388 30.2486844,31.6275535 30.248694,32.2315267 L30.248694,32.2315267 Z" id="Path"></path>
                                    <path d="M32.471208,27.857096 C32.4711984,28.4610692 31.9736867,28.9506838 31.359972,28.9506933 C31.065248,28.9506997 30.7825927,28.8354852 30.5741875,28.6303957 C30.3657822,28.4253062 30.2486986,28.1471418 30.248694,27.857096 C30.2486986,27.5670502 30.3657822,27.2888858 30.5741875,27.0837963 C30.7825927,26.8787068 31.065248,26.7634923 31.359972,26.7634987 C31.9736867,26.7635082 32.4711984,27.2531228 32.471208,27.857096 L32.471208,27.857096 Z" id="Path"></path>
                                    <path d="M25.803666,19.1081933 C25.8036564,19.7121665 25.3061447,20.2017812 24.69243,20.2017907 C24.397706,20.2017971 24.1150507,20.0865825 23.9066455,19.881493 C23.6982402,19.6764035 23.5811566,19.3982391 23.581152,19.1081933 C23.5811566,18.8181475 23.6982402,18.5399831 23.9066455,18.3348937 C24.1150507,18.1298042 24.397706,18.0145896 24.69243,18.014596 C25.3061447,18.0146055 25.8036564,18.5042201 25.803666,19.1081933 L25.803666,19.1081933 Z" id="Path"></path>
                                    <path d="M34.693722,34.4187627 C34.6937174,34.7088085 34.5766338,34.9869729 34.3682285,35.1920623 C34.1598233,35.3971518 33.877168,35.5123664 33.582444,35.51236 C32.9687293,35.5123505 32.4712176,35.0227359 32.471208,34.4187627 C32.4712015,34.1287169 32.5882744,33.8505481 32.7966718,33.6454509 C33.0050691,33.4403537 33.28772,33.3251286 33.582444,33.325124 C33.8771752,33.3251176 34.1598369,33.4403379 34.3682434,33.6454363 C34.5766499,33.8505347 34.6937285,34.1287097 34.693722,34.4187627 L34.693722,34.4187627 Z" id="Path"></path>
                                    <path d="M36.916236,38.7931933 C36.9162314,39.0832391 36.7991478,39.3614035 36.5907425,39.566493 C36.3823373,39.7715825 36.099682,39.8867971 35.804958,39.8867907 C35.1912433,39.8867812 34.6937316,39.3971665 34.693722,38.7931933 C34.6937155,38.5031475 34.8107884,38.2249788 35.0191858,38.0198816 C35.2275831,37.8147843 35.510234,37.6995592 35.804958,37.6995547 C36.0996892,37.6995483 36.3823509,37.8147685 36.5907574,38.0198669 C36.7991639,38.2249654 36.9162425,38.5031404 36.916236,38.7931933 L36.916236,38.7931933 Z" id="Path"></path>
                                    <path d="M41.36118,38.7931933 C41.3611754,39.0832391 41.2440918,39.3614035 41.0356865,39.566493 C40.8272813,39.7715825 40.544626,39.8867971 40.249902,39.8867907 C39.6361873,39.8867812 39.1386756,39.3971665 39.138666,38.7931933 C39.1386595,38.5031475 39.2557324,38.2249788 39.4641298,38.0198816 C39.6725271,37.8147843 39.955178,37.6995592 40.249902,37.6995547 C40.5446332,37.6995483 40.8272949,37.8147685 41.0357014,38.0198669 C41.2441079,38.2249654 41.3611865,38.5031404 41.36118,38.7931933 L41.36118,38.7931933 Z" id="Path"></path>
                                    <path d="M44.694972,25.6699013 C44.6949674,25.9599471 44.5778838,26.2381115 44.3694785,26.443201 C44.1610733,26.6482905 43.878418,26.7635051 43.583694,26.7634987 C42.9699793,26.7634892 42.4724676,26.2738745 42.472458,25.6699013 C42.4724515,25.3798555 42.5895244,25.1016868 42.7979218,24.8965896 C43.0063191,24.6914923 43.28897,24.5762672 43.583694,24.5762627 C43.8784252,24.5762563 44.1610869,24.6914765 44.3694934,24.8965749 C44.5778999,25.1016734 44.6949785,25.3798484 44.694972,25.6699013 L44.694972,25.6699013 Z" id="Path"></path>
                                    <path d="M19.136208,31.1379293 C19.1362034,31.4279751 19.0191198,31.7061395 18.8107145,31.911229 C18.6023093,32.1163185 18.319654,32.2315331 18.02493,32.2315267 C17.4112153,32.2315172 16.9137036,31.7419025 16.913694,31.1379293 C16.9136875,30.8478835 17.0307604,30.5697148 17.2391578,30.3646176 C17.4475551,30.1595203 17.730206,30.0442952 18.02493,30.0442907 C18.3196612,30.0442843 18.6023229,30.1595045 18.8107294,30.3646029 C19.0191359,30.5697014 19.1362145,30.8478764 19.136208,31.1379293 L19.136208,31.1379293 Z" id="Path"></path>
                                </g>
                            </g>
                            <g id="Virus-Copy" transform="translate(63.000000, 90.000000) rotate(6.000000) translate(-63.000000, -90.000000) translate(40.000000, 67.000000)">
                                <g id="Group">
                                    <path d="M25.3318933,0.383210667 C23.9971267,0.383210667 22.8977267,1.48282533 22.8977267,2.817592 C22.8977267,3.866852 23.5814707,4.761 24.5205147,5.09962133 L24.5205147,8.593996 C23.9869453,8.53480933 23.4468747,8.497396 22.8977267,8.497396 C22.5773827,8.497396 22.260228,8.50966267 21.9452813,8.532356 C21.6165653,7.57549467 20.7142293,6.87466933 19.6521813,6.8747 C18.3174453,6.8747 17.2180147,7.97413067 17.2180147,9.30886667 C17.2180147,9.42478667 17.2364147,9.53610667 17.2529747,9.64800933 C16.4708827,9.97847333 15.7244867,10.3744413 15.01854,10.8302093 L12.1041947,7.915864 C12.2572213,7.59840267 12.3498347,7.24782133 12.3498347,6.8747 C12.3498347,5.53993333 11.250404,4.44050267 9.915668,4.44053333 C8.580932,4.44053333 7.48150133,5.539964 7.48150133,6.8747 C7.48150133,8.209436 8.580932,9.308836 9.915668,9.30886667 C10.28882,9.30886667 10.63934,9.21625333 10.956832,9.06322667 L13.6904893,11.7969147 C13.009904,12.3529933 12.3821267,12.968688 11.8109907,13.636792 C11.4822747,13.4699653 11.1178013,13.3656987 10.7270467,13.3656987 C9.39231067,13.3656987 8.29288,14.4650987 8.29288,15.7998653 C8.29288,16.608392 8.70019467,17.3259307 9.31506133,17.769708 C9.05010133,18.442872 8.833656,19.139312 8.67001867,19.8567893 L4.89519733,19.8567893 C4.55660667,18.9177453 3.66245867,18.234032 2.613168,18.234032 C1.278432,18.2340627 0.179001333,19.3334627 0.179001333,20.6681987 C0.179001333,22.0029347 1.278432,23.1023653 2.613168,23.1023653 C3.66245867,23.102396 4.55651467,22.4186213 4.89519733,21.4795773 L8.38951067,21.4795773 C8.330324,22.0131467 8.29291067,22.5532173 8.29291067,23.1023653 C8.29291067,23.4227093 8.30517733,23.739864 8.32787067,24.05478 C7.37097867,24.3835267 6.670184,25.285832 6.670184,26.3479107 C6.670184,27.6826467 7.76961467,28.7820773 9.10435067,28.7820773 C9.22027067,28.7820773 9.33159067,28.7636773 9.443524,28.7471173 C9.69621733,29.3454547 9.98957467,29.9213133 10.3166653,30.4760733 L6.89681067,33.8959587 C6.57996267,33.743852 6.23091467,33.6503187 5.85880533,33.6503187 C4.52406933,33.650288 3.42463867,34.7497187 3.42463867,36.0844853 C3.42463867,37.4192213 4.52406933,38.518652 5.85880533,38.518652 C7.19354133,38.5186213 8.292972,37.4192213 8.292972,36.0844853 C8.292972,35.7123453 8.19943867,35.3632973 8.047332,35.04648 L11.2374013,31.85638 C11.882352,32.7120107 12.6183827,33.493612 13.432276,34.189132 C13.2654493,34.517848 13.1611827,34.882352 13.1611827,35.2731067 C13.1611827,36.6078427 14.2606133,37.7072733 15.5953493,37.7072733 C16.403876,37.7072733 17.1214147,37.299928 17.565192,36.685092 C18.2383867,36.9503587 18.934796,37.1664973 19.652304,37.330104 L19.652304,41.104956 C18.7132293,41.4435773 18.0294853,42.3377253 18.029516,43.3869853 C18.0294853,44.7217213 19.128916,45.821152 20.4636827,45.821152 C21.7984187,45.821152 22.8978493,44.7217213 22.8978493,43.3869853 C22.8978493,42.3377253 22.2141053,41.443608 21.2750613,41.104956 L21.2750613,37.6105813 C21.8086307,37.669768 22.3487013,37.7071813 22.8978493,37.7071813 C23.2181933,37.7071813 23.535348,37.6949147 23.8502947,37.6722213 C24.1790413,38.6290827 25.0813467,39.3298773 26.1433947,39.3298773 C27.4781307,39.3298773 28.5775613,38.2304773 28.5775613,36.8957107 C28.5775613,36.7797907 28.5591613,36.6684707 28.5426013,36.5565987 C29.3247547,36.2261347 30.071028,35.830136 30.7770973,35.374368 L33.691412,38.2887133 C33.539612,38.6051627 33.4488387,38.9563267 33.4488387,39.3283133 C33.4488387,40.6630493 34.54508,41.7656387 35.8798467,41.7656387 C37.2146133,41.7656387 38.310824,40.6630493 38.310824,39.3283133 C38.310824,37.9935467 37.2146133,36.8957107 35.8798467,36.8957107 C35.5064187,36.8957107 35.1560213,36.9886307 34.838652,37.1413507 L32.104964,34.4076627 C32.7856413,33.8516147 33.41348,33.23592 33.9844627,32.5677853 C34.3132093,32.734612 34.6777133,32.8388787 35.0684373,32.8388787 C36.4031733,32.8388787 37.502604,31.739448 37.502604,30.404712 C37.502604,29.5961547 37.0952587,28.878616 36.4804533,28.4348693 C36.7454133,27.7616747 36.9618587,27.0652653 37.1254347,26.3477573 L40.9002867,26.3477573 C41.2389387,27.2868013 42.133056,27.970576 43.1823467,27.9705453 C44.5171133,27.970576 45.6165133,26.8711453 45.6165133,25.5363787 C45.6165133,24.2016427 44.5171133,23.102212 43.1823467,23.102212 C42.133056,23.102212 41.2389387,23.7859253 40.9002867,24.7249693 L37.4059427,24.7249693 C37.4651293,24.1914307 37.5025427,23.6513293 37.5025427,23.102212 C37.5025427,23.051612 37.499476,23.001932 37.4964093,22.9516387 C38.4379067,22.6143667 39.1239813,21.7190533 39.1239507,20.6680453 C39.1239813,19.3333093 38.0245507,18.2338787 36.689784,18.2338787 C36.6775173,18.2338787 36.662184,18.236792 36.650224,18.2369453 C36.3375467,17.3583453 35.947804,16.5174653 35.4806893,15.7251307 L38.8973853,12.308404 C39.2143253,12.4605107 39.5633733,12.554044 39.9355133,12.554044 C41.2702187,12.5540133 42.3696493,11.4546133 42.36968,10.1198773 C42.36968,8.78514133 41.2702493,7.68571067 39.9355133,7.68571067 C38.6007467,7.68571067 37.501316,8.78514133 37.5013467,10.1198773 C37.5013467,10.4920173 37.59488,10.8410653 37.7469867,11.1578827 L34.553728,14.3511413 C33.9091453,13.49594 33.175384,12.7137253 32.362012,12.01842 C32.529452,11.68906 32.6331053,11.322992 32.6331053,10.9312867 C32.6331053,9.59655067 31.5337053,8.49712 30.1989387,8.49712 C29.3903813,8.49712 28.6728427,8.90446533 28.229096,9.51927067 C27.5559013,9.25431067 26.859492,9.03786533 26.141984,8.87428933 L26.141984,5.09940667 C27.081028,4.76078533 27.7647413,3.86660667 27.764772,2.81737733 C27.764772,1.48264133 26.6653413,0.383210667 25.3306053,0.383210667 L25.3318933,0.383210667 Z M25.3318933,2.00621333 C25.789624,2.00621333 26.143272,2.35986133 26.143272,2.817592 C26.143272,3.27532267 25.7895933,3.62900133 25.3318933,3.62900133 C24.8741627,3.62900133 24.5205147,3.27532267 24.5205147,2.817592 C24.5205147,2.35986133 24.8741627,2.00621333 25.3318933,2.00621333 Z M9.91551467,6.063168 C10.3732147,6.063168 10.7268933,6.416816 10.7268933,6.87454667 C10.7268933,7.33227733 10.3732147,7.68592533 9.91551467,7.68592533 C9.45781467,7.68592533 9.10410533,7.33227733 9.10410533,6.87454667 C9.10410533,6.416816 9.45781467,6.063168 9.91551467,6.063168 Z M19.6521813,8.49733467 C20.1099427,8.49733467 20.46356,8.85098267 20.46356,9.30871333 C20.4635293,9.76641333 20.109912,10.120092 19.6521813,10.120092 C19.1944813,10.120092 18.840772,9.76641333 18.840772,9.30871333 C18.840772,8.85098267 19.1944813,8.49736533 19.6521813,8.49733467 Z M39.9368933,9.30871333 C40.3945933,9.30871333 40.748272,9.66236133 40.748272,10.120092 C40.748272,10.5778227 40.3945933,10.9315013 39.9368933,10.9315013 C39.4791627,10.9315013 39.1255453,10.5778227 39.1255147,10.120092 C39.1255147,9.66236133 39.479132,9.30871333 39.9368933,9.30871333 Z M22.8977267,10.1200613 C24.632908,10.1200613 26.27336,10.4843507 27.7834787,11.102652 C27.8739453,12.3575627 28.9240027,13.365668 30.2002267,13.365668 C30.559548,13.365668 30.8981693,13.280108 31.2065227,13.137508 C32.987796,14.623216 34.3576147,16.5787373 35.1414547,18.8124973 C34.6069347,19.2605987 34.2571813,19.923428 34.2571813,20.6682293 C34.2571813,21.7157107 34.9385947,22.6086933 35.8751853,22.948664 C35.8758293,23.000184 35.8813187,23.050784 35.8813187,23.102304 C35.8813187,24.8374853 35.51706,26.4779373 34.8987893,27.988056 C33.643848,28.0785227 32.6357427,29.12858 32.6357733,30.404804 C32.6357427,30.764616 32.7210267,31.104004 32.8639333,31.4126947 C31.5132507,33.0318947 29.7723347,34.3086707 27.7895813,35.1178107 C27.3543293,34.7146667 26.7781947,34.461728 26.1444987,34.461728 C25.1097747,34.461728 24.2244587,35.12606 23.8751653,36.0448947 C23.5524907,36.069428 23.2280067,36.0844547 22.8989533,36.0844547 C21.163772,36.0844547 19.52332,35.720196 18.0132013,35.1019253 C17.9227347,33.8470147 16.8726773,32.83894 15.5964533,32.8389093 C15.2366107,32.8389093 14.897284,32.9241627 14.588532,33.0670693 C12.9692707,31.716264 11.6925253,29.975716 10.883416,27.9927173 C11.2865907,27.5576187 11.5394987,26.9814533 11.5394987,26.347788 C11.5394987,25.3130947 10.875228,24.427748 9.956332,24.078424 C9.93179867,23.75578 9.916772,23.431296 9.916772,23.1022427 C9.916772,21.3670613 10.281,19.7266093 10.8992707,18.21646 C12.1541813,18.1259933 13.1623173,17.075936 13.1623173,15.7997427 C13.1623173,15.4399307 13.077064,15.100512 12.9341573,14.7918213 C14.2848707,13.172468 16.02548,11.8958453 18.0084787,11.0867053 C18.443608,11.4898493 19.0197733,11.742788 19.6534387,11.742788 C20.688132,11.742788 21.573448,11.0784867 21.922772,10.1596213 C22.2454467,10.135088 22.5699307,10.1200613 22.898984,10.1200613 L22.8977267,10.1200613 Z M30.2002267,10.120092 C30.6579573,10.120092 31.011636,10.4737707 31.0116053,10.9315013 C31.0116053,11.389232 30.6579573,11.74288 30.2002267,11.74288 C29.742496,11.74288 29.388848,11.389232 29.388848,10.9315013 C29.388848,10.4737707 29.742496,10.120092 30.2002267,10.120092 Z M10.7268933,14.9884253 C11.1845933,14.9884253 11.538272,15.342104 11.538272,15.7998347 C11.538272,16.2575653 11.1845933,16.6112133 10.7268933,16.6112133 C10.2691933,16.6112133 9.91551467,16.2575653 9.91551467,15.7998347 C9.91551467,15.342104 10.2691933,14.9884253 10.7268933,14.9884253 Z M2.61301467,19.8567587 C3.07071467,19.8567587 3.42439333,20.2104373 3.42439333,20.668168 C3.42439333,21.1258987 3.07071467,21.4795467 2.61301467,21.4795467 C2.15531467,21.479516 1.80160533,21.1258987 1.80160533,20.668168 C1.80160533,20.210468 2.15531467,19.8567587 2.61301467,19.8567587 Z M36.691348,19.8567587 C37.1490787,19.8567587 37.5027267,20.2104373 37.5027267,20.668168 C37.5027267,21.1259293 37.1490787,21.4795467 36.691348,21.4795467 C36.2336173,21.479516 35.8799387,21.1258987 35.8799387,20.668168 C35.8799387,20.210468 36.2336173,19.8567587 36.691348,19.8567587 Z M43.1824387,24.725092 C43.6401693,24.725092 43.9938787,25.0787707 43.993848,25.5365013 C43.9938787,25.994232 43.6401693,26.34788 43.1824387,26.34788 C42.724708,26.34788 42.37106,25.994232 42.37106,25.5365013 C42.37106,25.0787707 42.724708,24.725092 43.1824387,24.725092 Z M9.10410533,25.5365013 C9.56180533,25.5365013 9.91551467,25.8901493 9.91551467,26.34788 C9.91551467,26.80558 9.56180533,27.1592587 9.10410533,27.1592587 C8.64640533,27.1592587 8.29272667,26.8056107 8.29272667,26.34788 C8.29272667,25.8901493 8.64640533,25.5365013 9.10410533,25.5365013 Z M35.06856,29.5934253 C35.5262907,29.5934253 35.8799387,29.947104 35.8799387,30.4048347 C35.8799387,30.8625653 35.5262907,31.2162133 35.06856,31.2162133 C34.6108293,31.2162133 34.2571813,30.8625653 34.2571813,30.4048347 C34.2571813,29.947104 34.6108293,29.5934253 35.06856,29.5934253 Z M15.5952267,34.4617587 C16.0529267,34.4617587 16.4066053,34.8154373 16.4066053,35.273168 C16.4066053,35.7308987 16.0529267,36.0845467 15.5952267,36.0845467 C15.1375267,36.0845467 14.783848,35.7308987 14.783848,35.273168 C14.783848,34.8154373 15.1374347,34.4617587 15.5952267,34.4617587 Z M5.85856,35.273168 C6.31626,35.273168 6.66993867,35.626816 6.66993867,36.0845467 C6.66993867,36.5422773 6.31626,36.8959253 5.85856,36.8959253 C5.40086,36.8959253 5.04718133,36.5422773 5.04718133,36.0845467 C5.04718133,35.626816 5.40086,35.273168 5.85856,35.273168 Z M26.143272,36.0845467 C26.6010027,36.0845467 26.9546813,36.4381947 26.9546813,36.8959253 C26.9546813,37.353656 26.6010027,37.7073347 26.143272,37.7073347 C25.6855413,37.7073347 25.3318933,37.353656 25.3318933,36.8959253 C25.3318933,36.4381947 25.6855413,36.0845467 26.143272,36.0845467 Z M35.8799387,38.5187133 C36.3376693,38.5187133 36.6881587,38.8707973 36.6881587,39.328528 C36.6881587,39.7862587 36.3376693,40.1430653 35.8799387,40.1430653 C35.422208,40.1430653 35.0717187,39.7862587 35.0717187,39.328528 C35.0717187,38.8707973 35.422208,38.5187133 35.8799387,38.5187133 Z M20.46356,42.575668 C20.92126,42.575668 21.2749387,42.929316 21.2749387,43.3870467 C21.2749387,43.8447773 20.92126,44.1984253 20.46356,44.1984253 C20.0058293,44.1984253 19.6521813,43.8447773 19.6521813,43.3870467 C19.6521813,42.929316 20.0058293,42.575668 20.46356,42.575668 Z" id="Shape"></path>
                                    <path d="M20.46356,27.970668 C19.128824,27.970668 18.0293933,29.0700987 18.0293933,30.4048347 C18.0293933,31.7396013 19.1287933,32.8390013 20.46356,32.8390013 C21.798296,32.8390013 22.8977267,31.7395707 22.8977267,30.4048347 C22.8977267,29.0701293 21.7982653,27.970668 20.46356,27.970668 L20.46356,27.970668 Z M20.46356,29.5934253 C20.92126,29.5934253 21.2749693,29.9471347 21.2749693,30.4048347 C21.2749693,30.8625653 20.92126,31.2162133 20.46356,31.2162133 C20.0058293,31.2162133 19.6521813,30.8625653 19.6521813,30.4048347 C19.652212,29.947104 20.0058293,29.5934253 20.46356,29.5934253 Z" id="Shape"></path>
                                    <path d="M17.2180147,17.422592 C15.8832787,17.422592 14.783848,18.5220227 14.783848,19.8567587 C14.783848,21.191464 15.8833093,22.2909253 17.2180147,22.2909253 C18.5527507,22.2909253 19.6521813,21.1914947 19.6521813,19.8567587 C19.6521813,18.521992 18.5527813,17.422592 17.2180147,17.422592 Z M17.2180147,19.04538 C17.6757453,19.04538 18.0293933,19.399028 18.0293933,19.8567587 C18.0293933,20.3144893 17.6757453,20.6681987 17.2180147,20.668168 C16.7603147,20.668168 16.406636,20.3144893 16.406636,19.8567587 C16.406636,19.399028 16.760284,19.04538 17.2180147,19.04538 Z" id="Shape"></path>
                                    <path d="M26.9546813,14.1770467 C25.6199453,14.1770467 24.5205147,15.2764773 24.5205147,16.6112133 C24.5205147,17.9459493 25.6199453,19.04538 26.9546813,19.04538 C28.289448,19.04538 29.388848,17.9459493 29.388848,16.6112133 C29.388848,15.2764467 28.289448,14.1770467 26.9546813,14.1770467 Z M26.9546813,15.7998347 C27.412412,15.7998347 27.76606,16.153452 27.76606,16.6112133 C27.76606,17.068944 27.412412,17.422592 26.9546813,17.422592 C26.4969813,17.422592 26.1433027,17.0689133 26.1433027,16.6112133 C26.1433027,16.1534827 26.4969813,15.7998653 26.9546813,15.7998347 Z" id="Shape"></path>
                                    <path d="M18.0293933,25.5365013 C18.0293863,25.9846105 17.6661238,26.347873 17.2180147,26.34788 C17.0028194,26.3478847 16.7964361,26.262403 16.6442672,26.1102398 C16.4920983,25.9580766 16.4066087,25.7516966 16.4066053,25.5365013 C16.4066087,25.3213061 16.4920983,25.114926 16.6442672,24.9627629 C16.7964361,24.8105997 17.0028194,24.7251179 17.2180147,24.7251227 C17.6661238,24.7251297 18.0293863,25.0883922 18.0293933,25.5365013 L18.0293933,25.5365013 Z" id="Path"></path>
                                    <path d="M15.5952573,28.7820467 C15.5952539,28.9972419 15.5097644,29.203622 15.3575954,29.3557851 C15.2054265,29.5079483 14.9990433,29.5934301 14.783848,29.5934253 C14.3357389,29.5934183 13.9724764,29.2301558 13.9724693,28.7820467 C13.9724646,28.5668514 14.0579464,28.3604681 14.2101095,28.2082992 C14.3622727,28.0561303 14.5686527,27.9706407 14.783848,27.9706373 C14.9990486,27.9706326 15.2054365,28.0561186 15.3576063,28.2082884 C15.5097761,28.3604582 15.5952621,28.5668461 15.5952573,28.7820467 L15.5952573,28.7820467 Z" id="Path"></path>
                                    <path d="M26.954712,32.0276227 C26.9547086,32.2428179 26.869219,32.449198 26.7170501,32.6013611 C26.5648812,32.7535243 26.3584979,32.8390061 26.1433027,32.8390013 C25.6951935,32.8389943 25.331931,32.4757318 25.331924,32.0276227 C25.3319193,31.8124274 25.417401,31.6060441 25.5695642,31.4538752 C25.7217274,31.3017063 25.9281074,31.2162167 26.1433027,31.2162133 C26.3585033,31.2162086 26.5648912,31.3016946 26.717061,31.4538644 C26.8692308,31.6060342 26.9547168,31.8124221 26.954712,32.0276227 L26.954712,32.0276227 Z" id="Path"></path>
                                    <path d="M22.086348,15.799804 C22.086341,16.2479161 21.7230772,16.6111799 21.2749693,16.6111827 C20.8268614,16.6111799 20.4635977,16.2479161 20.4635907,15.799804 C20.4635977,15.3516919 20.8268614,14.9884281 21.2749693,14.9884253 C21.7230772,14.9884281 22.086341,15.3516919 22.086348,15.799804 L22.086348,15.799804 Z" id="Path"></path>
                                    <path d="M30.2002267,21.4795467 C28.86546,21.4795467 27.76606,22.5789467 27.76606,23.9137133 C27.76606,25.2484493 28.8654907,26.34788 30.2002267,26.34788 C31.534932,26.34788 32.6343933,25.2484187 32.6343933,23.9137133 C32.6343933,22.5789773 31.5349627,21.4795467 30.2002267,21.4795467 Z M30.2002267,23.1023347 C30.6579573,23.1023347 31.011636,23.4559827 31.011636,23.9137133 C31.011636,24.3714133 30.6579267,24.725092 30.2002267,24.725092 C29.742496,24.725092 29.388848,24.371444 29.388848,23.9137133 C29.388848,23.4559827 29.742496,23.1023347 30.2002267,23.1023347 Z" id="Shape"></path>
                                    <path d="M22.086348,23.9137133 C22.086341,24.3618225 21.7230785,24.725085 21.2749693,24.725092 C21.0597741,24.7250967 20.8533908,24.639615 20.7012219,24.4874518 C20.549053,24.3352886 20.4635634,24.1289086 20.46356,23.9137133 C20.4635634,23.6985181 20.549053,23.492138 20.7012219,23.3399749 C20.8533908,23.1878117 21.0597741,23.1023299 21.2749693,23.1023347 C21.7230785,23.1023417 22.086341,23.4656042 22.086348,23.9137133 L22.086348,23.9137133 Z" id="Path"></path>
                                    <path d="M23.709136,20.668168 C23.709129,21.1162771 23.3458665,21.4795396 22.8977573,21.4795467 C22.6825621,21.4795514 22.4761788,21.3940696 22.3240099,21.2419065 C22.171841,21.0897433 22.0863514,20.8833633 22.086348,20.668168 C22.0863514,20.4529727 22.171841,20.2465927 22.3240099,20.0944295 C22.4761788,19.9422664 22.6825621,19.8567846 22.8977573,19.8567893 C23.3458665,19.8567964 23.709129,20.2200589 23.709136,20.668168 L23.709136,20.668168 Z" id="Path"></path>
                                    <path d="M18.840772,14.1770467 C18.840765,14.6251558 18.4775025,14.9884183 18.0293933,14.9884253 C17.8141981,14.9884301 17.6078148,14.9029483 17.4556459,14.7507851 C17.303477,14.598622 17.2179874,14.3922419 17.217984,14.1770467 C17.2179874,13.9618514 17.303477,13.7554714 17.4556459,13.6033082 C17.6078148,13.451145 17.8141981,13.3656633 18.0293933,13.365668 C18.4775025,13.365675 18.840765,13.7289375 18.840772,14.1770467 L18.840772,14.1770467 Z" id="Path"></path>
                                    <path d="M25.331924,25.5365013 C25.3319206,25.7516966 25.246431,25.9580766 25.0942621,26.1102398 C24.9420932,26.262403 24.7357099,26.3478847 24.5205147,26.34788 C24.0724055,26.347873 23.709143,25.9846105 23.709136,25.5365013 C23.7091313,25.3213061 23.794613,25.1149228 23.9467762,24.9627539 C24.0989394,24.810585 24.3053194,24.7250954 24.5205147,24.725092 C24.7357153,24.7250872 24.9421032,24.8105732 25.094273,24.962743 C25.2464428,25.1149128 25.3319288,25.3213007 25.331924,25.5365013 L25.331924,25.5365013 Z" id="Path"></path>
                                    <path d="M26.954712,28.7820467 C26.9547086,28.9972419 26.869219,29.203622 26.7170501,29.3557851 C26.5648812,29.5079483 26.3584979,29.5934301 26.1433027,29.5934253 C25.6951935,29.5934183 25.331931,29.2301558 25.331924,28.7820467 C25.3319193,28.5668514 25.417401,28.3604681 25.5695642,28.2082992 C25.7217274,28.0561303 25.9281074,27.9706407 26.1433027,27.9706373 C26.3585033,27.9706326 26.5648912,28.0561186 26.717061,28.2082884 C26.8692308,28.3604582 26.9547168,28.5668461 26.954712,28.7820467 L26.954712,28.7820467 Z" id="Path"></path>
                                    <path d="M30.2002267,28.7820467 C30.2002233,28.9972419 30.1147337,29.203622 29.9625648,29.3557851 C29.8103959,29.5079483 29.6040126,29.5934301 29.3888173,29.5934253 C28.9407082,29.5934183 28.5774457,29.2301558 28.5774387,28.7820467 C28.5774339,28.5668514 28.6629157,28.3604681 28.8150789,28.2082992 C28.967242,28.0561303 29.1736221,27.9706407 29.3888173,27.9706373 C29.6040179,27.9706326 29.8104058,28.0561186 29.9625756,28.2082884 C30.1147454,28.3604582 30.2002314,28.5668461 30.2002267,28.7820467 L30.2002267,28.7820467 Z" id="Path"></path>
                                    <path d="M32.634424,19.0454107 C32.6344206,19.2606059 32.548931,19.466986 32.3967621,19.6191491 C32.2445932,19.7713123 32.0382099,19.8567941 31.8230147,19.8567893 C31.3749055,19.8567823 31.011643,19.4935198 31.011636,19.0454107 C31.0116313,18.8302154 31.097113,18.6238321 31.2492762,18.4716632 C31.4014394,18.3194943 31.6078194,18.2340047 31.8230147,18.2340013 C32.0382153,18.2339966 32.2446032,18.3194826 32.396773,18.4716524 C32.5489428,18.6238222 32.6344288,18.8302101 32.634424,19.0454107 L32.634424,19.0454107 Z" id="Path"></path>
                                    <path d="M13.9724693,23.1023347 C13.9724659,23.3175299 13.8869764,23.52391 13.7348074,23.6760731 C13.5826385,23.8282363 13.3762553,23.9137181 13.16106,23.9137133 C12.7129509,23.9137063 12.3496884,23.5504438 12.3496813,23.1023347 C12.3496766,22.8871394 12.4351584,22.6807561 12.5873215,22.5285872 C12.7394847,22.3764183 12.9458647,22.2909287 13.16106,22.2909253 C13.3762606,22.2909206 13.5826485,22.3764066 13.7348183,22.5285764 C13.8869881,22.6807462 13.9724741,22.8871341 13.9724693,23.1023347 L13.9724693,23.1023347 Z" id="Path"></path>
                                </g>
                            </g>
                        </g>
                    </g>
                </g>
            </g>
        </g>
    </g>
</svg>